<svg width="38" height="34" viewBox="0 0 38 34" fill="none" xmlns="http://www.w3.org/2000/svg">
<path d="M12.6562 33.75C14.2095 33.75 15.4687 32.4908 15.4687 30.9375C15.4687 29.3842 14.2095 28.125 12.6562 28.125C11.1029 28.125 9.84367 29.3842 9.84367 30.9375C9.84367 32.4908 11.1029 33.75 12.6562 33.75Z" fill="black"/>
<path d="M32.3436 33.75C33.8969 33.75 35.1561 32.4908 35.1561 30.9375C35.1561 29.3842 33.8969 28.125 32.3436 28.125C30.7903 28.125 29.5311 29.3842 29.5311 30.9375C29.5311 32.4908 30.7903 33.75 32.3436 33.75Z" fill="black"/>
<path d="M37.3359 4.99043C37.1383 4.74877 36.8894 4.55414 36.6073 4.42067C36.3251 4.28719 36.0168 4.21821 35.7047 4.21875H8.95517L8.4164 1.16191C8.35895 0.836304 8.18861 0.541349 7.93529 0.328858C7.68197 0.116367 7.36188 -6.94701e-05 7.03124 3.10959e-08H1.40625C1.03329 3.10959e-08 0.675603 0.148158 0.411881 0.411881C0.148158 0.675605 0 1.03329 0 1.40625C0 1.77921 0.148158 2.1369 0.411881 2.40062C0.675603 2.66434 1.03329 2.8125 1.40625 2.8125H5.85175L9.86483 25.5568C9.92228 25.8825 10.0926 26.1774 10.3459 26.3899C10.5993 26.6024 10.9194 26.7188 11.25 26.7188H33.75C34.1229 26.7188 34.4806 26.5706 34.7443 26.3069C35.0081 26.0432 35.1562 25.6855 35.1562 25.3125C35.1562 24.9395 35.0081 24.5819 34.7443 24.3181C34.4806 24.0544 34.1229 23.9063 33.75 23.9063H12.4295L11.9338 21.0938H33.1734C33.6611 21.0931 34.1336 20.924 34.5109 20.6151C34.8883 20.3061 35.1473 19.8763 35.2441 19.3983L37.7754 6.74209C37.8363 6.43579 37.8286 6.11978 37.7526 5.81685C37.6766 5.51393 37.5343 5.23166 37.3359 4.99043Z" fill="black"/>
</svg>
