<svg width="34" height="34" viewBox="0 0 34 34" fill="none" xmlns="http://www.w3.org/2000/svg">
<path d="M33.75 16.875C33.75 7.57687 26.1731 0 16.875 0C7.57687 0 0 7.57687 0 16.875C0 21.7687 2.10938 26.1731 5.45062 29.2612C5.45062 29.2781 5.45062 29.2781 5.43375 29.295C5.6025 29.4638 5.805 29.5987 5.97375 29.7506C6.075 29.835 6.15938 29.9194 6.26062 29.9869C6.56437 30.24 6.90188 30.4763 7.2225 30.7125C7.34063 30.7969 7.44187 30.8644 7.56 30.9487C7.88063 31.1681 8.21813 31.3706 8.5725 31.5563C8.69063 31.6238 8.82563 31.7081 8.94375 31.7756C9.28125 31.9613 9.63562 32.13 10.0069 32.2819C10.1419 32.3494 10.2769 32.4169 10.4119 32.4675C10.7831 32.6194 11.1544 32.7544 11.5256 32.8725C11.6606 32.9231 11.7956 32.9737 11.9306 33.0075C12.3356 33.1256 12.7406 33.2269 13.1456 33.3281C13.2638 33.3619 13.3819 33.3956 13.5169 33.4125C13.9894 33.5137 14.4619 33.5812 14.9512 33.6319C15.0187 33.6319 15.0862 33.6488 15.1537 33.6656C15.7275 33.7163 16.3013 33.75 16.875 33.75C17.4487 33.75 18.0225 33.7163 18.5794 33.6656C18.6469 33.6656 18.7144 33.6488 18.7819 33.6319C19.2712 33.5812 19.7437 33.5137 20.2162 33.4125C20.3344 33.3956 20.4525 33.345 20.5875 33.3281C20.9925 33.2269 21.4144 33.1425 21.8025 33.0075C21.9375 32.9569 22.0725 32.9062 22.2075 32.8725C22.5788 32.7375 22.9669 32.6194 23.3212 32.4675C23.4562 32.4169 23.5912 32.3494 23.7262 32.2819C24.0806 32.13 24.435 31.9613 24.7894 31.7756C24.9244 31.7081 25.0425 31.6238 25.1606 31.5563C25.4981 31.3538 25.8356 31.1681 26.1731 30.9487C26.2913 30.8813 26.3925 30.7969 26.5106 30.7125C26.8481 30.4763 27.1688 30.24 27.4725 29.9869C27.5738 29.9025 27.6581 29.8181 27.7594 29.7506C27.945 29.5987 28.1306 29.4469 28.2994 29.295C28.2994 29.2781 28.2994 29.2781 28.2825 29.2612C31.6406 26.1731 33.75 21.7687 33.75 16.875ZM25.2113 25.2619C20.6381 22.1906 13.1456 22.1906 8.53875 25.2619C7.79625 25.7512 7.18875 26.325 6.6825 26.9494C4.1175 24.3506 2.53125 20.79 2.53125 16.875C2.53125 8.96062 8.96062 2.53125 16.875 2.53125C24.7894 2.53125 31.2188 8.96062 31.2188 16.875C31.2188 20.79 29.6325 24.3506 27.0675 26.9494C26.5781 26.325 25.9538 25.7512 25.2113 25.2619Z" fill="black"/>
<path d="M16.875 8.31873C13.3819 8.31873 10.5469 11.1537 10.5469 14.6469C10.5469 18.0725 13.23 20.8569 16.7906 20.9581H16.9425H17.0606H17.0944C20.5031 20.84 23.1862 18.0725 23.2031 14.6469C23.2031 11.1537 20.3681 8.31873 16.875 8.31873Z" fill="black"/>
</svg>
